<?xml version="1.0" encoding="utf-8"?>
<!-- Generator: Adobe Illustrator 16.0.0, SVG Export Plug-In . SVG Version: 6.00 Build 0)  -->
<!DOCTYPE svg PUBLIC "-//W3C//DTD SVG 1.1//EN" "http://www.w3.org/Graphics/SVG/1.1/DTD/svg11.dtd">
<svg version="1.1" id="Layer_1" xmlns="http://www.w3.org/2000/svg" xmlns:xlink="http://www.w3.org/1999/xlink" x="0px" y="0px"
	 width="366.361px" height="516.4px" viewBox="125.646 0 366.361 516.4" enable-background="new 125.646 0 366.361 516.4"
	 xml:space="preserve">
<g transform="translate(0.000000,640.000000) scale(0.100000,-0.100000)">
	<path d="M3030,6375c0-3.999,17.998-27.998,40.996-52.002c22.002-25,39.004-45.996,37.002-48.999
		c-2.002-1.997-30.996,1.001-63.999,6.001c-31.997,6.001-132.998,15-222.998,20c-355,22.002-710-32.002-916.001-137.998L1855,6136
		l70-7.002C2008.999,6120,2065,6101,2122.998,6061c79.004-53.999,77.002-56.001-45.996-58.003
		c-128.003-1.997-240-21.997-343.003-61.997C1537.002,5865,1362.002,5683.999,1287.002,5480c-39.004-105-41.001-132.002-4.004-60
		c109.004,216.001,266.001,336.001,475,365l43.003,5l-80-77.998c-128.999-128.003-217.002-284.004-262.002-467.002
		c-20-77.002-38.999-355-26.001-355c4.004,0,15,17.002,26.001,37.998c42.002,80,128.003,132.002,221.001,131.001
		c96.001-1.001,100-6.997,41.001-71.001c-55-60.996-118.003-103.999-193.003-133.999c-26.997-11.001-47.998-21.997-47.998-25
		C1480,4815,1627.002,4766,1687.998,4760l67.002-6.001L1706.001,4731c-27.002-13.003-75-26.001-107.002-28.003
		c-31.997-2.998-56.001-10-52.998-13.999c7.998-13.999,165-10,206.997,5l38.003,13.999l-5-25.996
		c-33.003-163.003-42.002-554.004-17.002-742.002c8.003-57.998,13.003-107.002,13.003-108.999c-1.001-3.003-25-6.001-54.004-8.003
		c-106.997-5.996-185.996-72.998-207.998-175.996c-12.002-60-3.999-112.002,33.999-228.003c13.999-41.997,32.002-116.001,41.001-165
		c48.999-261.001,146.001-431.001,282.002-493.003c60.996-27.998,58.999-21.992,92.998-270.996c12.002-85,27.998-182.002,36.001-215
		c23.999-94.004,86.001-212.002,165-310c83.999-105.996,491.997-512.998,580-579.004c266.001-200,631.997-200,898.003,0
		c87.998,66.006,495.996,473.008,580,579.004c78.994,97.998,140.996,215.996,165,310c7.998,32.998,23.994,130,35.996,215
		c35,252.002,30,239.004,105.996,279.004c132.002,67.998,215,215,265,468.994c12.002,59.004,32.002,141.001,46.006,182.002
		c37.002,115,45,167.002,32.998,227.002c-22.002,105.996-105,172.998-215,175.996c-45,1.001-54.004,4.004-50,17.002
		c9.004,32.002,35,243.999,40.996,341.001l7.002,100l61.006,41.997c32.998,23.003,63.994,45,67.998,48.003
		c5,2.998,12.998,46.001,20,95c5.996,48.999,12.002,90,12.998,91.997c2.002,2.002,22.002-5.996,45-17.998s45-18.999,47.998-16.001
		c10,10-17.998,138.003-47.002,212.002c-33.994,87.998-102.998,192.998-170,257.998l-50,48.999l33.008,46.001
		C4740,5165,4762.001,5247.001,4762.001,5376c0,123.999-15,181.001-25,96.001c-11.006-90-67.002-171.001-121.006-175
		c-25-2.002-30,3.999-46.992,50C4530.996,5446,4432.998,5563.999,4322.998,5641c-20.996,15-20.996,16.997-5.996,60
		c20,57.998,12.998,187.998-14.004,248.999l-18.994,45l3.994-95c2.002-62.002-2.002-111.001-10.996-140l-12.998-45L4245,5788.999
		c-10,41.001-35.996,111.001-57.998,155c-70,141.001-245,293.003-369.004,322.002c-25.996,6.001-25.996,5-17.002-33.003
		c17.002-72.998,13.008-75.996-37.998-35.996c-125,95.996-348.994,157.998-635,177.998C3074.004,6378.999,3030,6378.999,3030,6375z
		 M2860,4748.999c150-30,181.001-33.999,340-33.999c159.004,0,190.996,3.999,340,33.999C3725,4786,3925.996,4800,3995.996,4781
		C4055,4765,4102.001,4730,4127.998,4682.998c12.002-22.998,36.006-101.997,51.006-175c36.992-168.999,60.996-231.997,118.994-310
		c64.004-86.997,72.998-132.998,79.004-420.996c5-228.003,5.996-237.002,25-231.001c17.998,5,18.994,1.001,13.994-83.003
		C4412.998,3415,4407.998,3330,4405,3275c-7.002-119.004-35.996-327.998-70-492.998c-12.998-66.006-32.998-189.004-45-272.998
		c-24.004-175-40-239.004-80-320c-57.998-113.008-235-310-509.004-566.006c-120-112.002-170-150.996-225-177.998
		c-183.994-90-367.998-90-551.997,0c-56.001,27.998-105,67.002-235,187.998c-276.001,259.004-441.001,442.998-498.999,556.006
		c-40,80.996-56.001,145-80,320c-12.002,83.994-32.002,206.992-45,272.998c-32.998,157.998-62.998,370.996-68.999,482.998
		c-18.003,307.998-18.003,287.002,1.997,280c19.004-5,20,3.999,25,232.002c6.001,287.998,15,333.999,79.004,420.996
		c57.998,78.003,81.997,141.001,118.999,310C2260,4692.001,2290,4740,2386.001,4776C2452.002,4801,2662.998,4788.999,2860,4748.999z
		 M1812.998,3680c6.001-16.001,15-30,19.004-30c3.999,0,7.998-6.001,7.998-13.999c0-10-12.002-12.002-48.999-8.003
		c-57.002,5-85-7.998-107.002-50C1657.002,3527.001,1682.998,3450,1720,3470c13.999,7.998,17.002,17.998,12.998,48.999
		c-5,36.001-2.998,42.002,19.004,52.002c20,8.999,31.997,7.998,56.997-5c28.003-15,31.001-21.001,31.001-67.002
		c0-35-6.001-57.998-21.001-77.998c-52.998-72.002-36.997-228.999,31.001-306.001c17.998-20.996,56.001-222.002,43.999-234.004
		c-10-10-73.999,70-103.999,129.004c-36.001,72.002-66.001,167.998-81.001,255c-6.001,38.999-26.997,118.999-45,177.998
		c-60,193.003-36.001,266.001,88.999,267.002C1797.998,3710,1802.998,3707.998,1812.998,3680z M4719.003,3696
		c60-32.002,65-98.999,16.992-253.003c-17.998-58.999-38.994-138.999-45-177.998c-15.996-92.998-45.996-185.996-87.998-265.996
		C4570,2935,4515.996,2870.996,4505,2882.002c-12.002,10.996,27.002,212.998,45,232.998c42.998,47.998,55,87.998,55,182.002
		c0,78.999-2.998,95-22.002,121.997c-17.002,22.002-22.998,43.999-22.998,80c0,46.001,2.998,52.002,30,66.001
		c37.002,18.999,45,18.999,65-2.002c12.002-10.996,15-25,10.996-47.998c-5-22.002-1.992-36.001,9.004-45
		c35-28.999,65,46.001,40.996,103.999c-16.992,40-60.996,61.001-115.996,53.003c-30-4.004-40-2.002-40,8.999
		c0,7.998,5,13.999,10,13.999c5.996,0,10,6.001,10,13.999C4580,3707.001,4662.001,3725,4719.003,3696z"/>
	<path d="M2438.999,3896c-53.999-13.999-131.997-62.002-173.999-105c-35-38.003-25-52.002,17.998-26.001
		c159.004,95,181.001,96.001,423.003,15c97.998-32.998,190-60,203.999-60c32.002,0,50,17.002,50,45c0,47.998-46.001,65-302.002,115
		c-86.997,16.001-160.996,30-165,28.999C2487.998,3908.999,2463.999,3902.998,2438.999,3896z"/>
	<path d="M3715.996,3875c-190-38.999-232.998-51.001-257.998-72.998c-20.996-17.002-22.998-53.003-5.996-70
		c20.996-21.001,60.996-13.003,242.002,47.998C3935,3861,3957.998,3861,4117.001,3765c52.002-32.002,52.002-7.002,0,40
		c-55,51.001-134.004,91.001-192.002,98.999C3900,3907.001,3822.998,3896,3715.996,3875z"/>
	<path d="M2433.999,3627.998C2307.998,3613.999,2255,3598.999,2255,3575c0-22.002,92.002-97.002,115-92.002
		c23.999,4.004,23.999,39.004-1.001,57.002l-21.997,17.998l40.996,6.001c23.003,3.003,60,8.999,82.002,12.002l40,6.001v-45
		c0-34.004,6.001-50,26.001-70c65-66.001,172.998-28.003,173.999,60.996c0,30,2.002,33.003,22.998,26.001
		c30-8.999,94.004-50,134.004-85c18.999-16.001,38.999-26.001,47.998-22.998c66.001,26.001-97.998,153.999-232.998,182.998
		C2622.002,3642.001,2551.001,3641,2433.999,3627.998z"/>
	<path d="M3705,3626c-132.998-33.003-282.998-155-220-180c9.004-3.003,29.004,6.997,47.998,22.998c40,35,104.004,76.001,135,85
		c20,7.002,22.002,3.999,22.002-26.001c0.996-88.999,109.004-126.997,174.004-60.996c20,20,25.996,35.996,25.996,70v45l40-6.001
		c22.002-3.003,59.004-8.999,82.002-12.002l40.996-6.001L4030.996,3540c-25-17.998-25-52.998-0.996-57.002
		c22.998-5,115,70,115,92.002c0,25-49.004,37.998-194.004,53.999C3825,3642.998,3769.004,3642.001,3705,3626z"/>
	<path d="M3037.002,3623.999c-4.004-3.999-7.002-172.998-7.002-375c0-296.997,2.998-368.003,12.998-371.997
		c36.006-14.004,37.002,2.002,35,378.999C3075,3580,3072.998,3625,3060,3627.998
		C3051.001,3628.999,3041.001,3627.998,3037.002,3623.999z"/>
	<path d="M2890,3025.996c-16.001-43.994-23.999-245.996-11.001-306.992c13.999-67.002,30-83.008,96.001-100
		c31.001-8.008,66.001-26.006,92.998-49.004c82.002-72.998,182.002-72.998,264.004,0c27.998,24.004,60.996,40.996,95,49.004
		c62.002,15,85,37.998,87.002,87.998C3515,2760,3485,2765,3465,2715.996c-12.002-28.994-22.002-35.996-52.002-41.992
		C3365,2665.996,3330,2647.998,3305,2620c-60-65.996-150-65.996-210,0c-25,27.998-60,45.996-107.998,54.004
		c-29.004,5-40,13.994-48.003,33.994c-16.001,39.004-6.997,281.006,10,291.006c22.002,13.994,8.003,45.996-21.997,48.994
		C2906.001,3050.996,2897.998,3045.996,2890,3025.996z"/>
	<path d="M2572.998,2364.004c-10-26.006,14.004-62.002,54.004-82.002c40.996-21.006,171.997-52.998,297.998-72.998
		c46.001-8.008,165-13.008,280-13.008c164.004,0,222.998,4.004,329.004,23.008c240,41.992,303.994,73.994,296.992,148.994
		c-1.992,20-38.994,14.004-50.996-8.994c-20-37.002-115.996-65-317.998-93.008c-292.002-40.996-760,7.002-833.003,85
		C2598.999,2384.004,2582.002,2387.002,2572.998,2364.004z"/>
	<path d="M2980,2062.002c0-12.002,7.998-25,17.998-30c37.002-20,169.004-35,257.002-29.004
		c117.998,7.998,169.004,24.004,172.998,56.006c4.004,22.998,2.998,22.998-55,15c-73.994-11.006-260.996-12.002-335,0
		C2982.998,2082.002,2980,2080.996,2980,2062.002z"/>
	<path d="M240,467.998c-157.002-45-188.999-252.002-52.002-338.994L233.999,100H990h757.002l43.999,22.998
		c61.997,32.998,102.998,111.006,95,181.006c-7.002,62.998-45,118.994-98.999,147.998L1745,475l-735,2.002
		C541.001,477.998,262.002,475,240,467.998z M1770,410.996c47.002-25,72.998-71.992,72.002-128.994
		c0-51.006-21.001-85-72.002-119.004L1737.002,140H997.998c-670.996,0-742.998,2.002-775,17.002
		c-38.999,17.998-70,60.996-78.999,108.994c-7.998,45,26.001,118.008,68.003,144.004C243.999,430,260,430,990,430
		C1697.998,430,1737.002,429.004,1770,410.996z"/>
	<path d="M857.998,377.998c-1.997-18.994-10-23.994-45-25.996c-65.996-5-95-66.006-56.997-120
		c12.998-19.004,23.999-22.002,75-21.006L890,212.998v92.998c0,75-2.998,94.004-13.999,94.004C867.998,400,860,390,857.998,377.998z
		"/>
	<path d="M586.001,327.998c-20-28.994-20-67.002,0-95.996c12.998-19.004,23.999-22.998,60-21.006c23.999,2.002,46.001,0,50-3.994
		C712.002,190.996,720,215.996,720,280.996V350h-58.999C610,350,598.999,347.002,586.001,327.998z"/>
	<path d="M1232.002,334.004c-16.001-11.006-22.002-25-22.002-53.008c0-52.998,22.998-71.992,87.998-68.994l52.002,2.002v67.998V350
		h-47.998C1275,350,1245,342.998,1232.002,334.004z"/>
</g>
</svg>
