<?xml version="1.0" encoding="utf-8"?>
<!-- Generator: Adobe Illustrator 16.0.0, SVG Export Plug-In . SVG Version: 6.00 Build 0)  -->
<!DOCTYPE svg PUBLIC "-//W3C//DTD SVG 1.1//EN" "http://www.w3.org/Graphics/SVG/1.1/DTD/svg11.dtd">
<svg version="1.1" id="Layer_1" xmlns="http://www.w3.org/2000/svg" xmlns:xlink="http://www.w3.org/1999/xlink" x="0px" y="0px"
	 width="366.361px" height="516.4px" viewBox="0 0 366.361 516.4" enable-background="new 0 0 366.361 516.4" xml:space="preserve">
<g transform="translate(0.000000,640.000000) scale(0.100000,-0.100000)">
	<path fill="#012069" d="M1773.545,6411.21c0-3.999,17.998-27.998,40.996-52.002c22.002-25,39.004-45.996,37.002-48.999
		c-2.002-1.997-30.996,1.001-64.004,6.001c-31.992,6.001-132.988,15-222.988,20c-355,22.002-710-32.002-916.006-137.998l-50-26.001
		l70-7.002c83.994-8.999,140-27.998,197.998-67.998c79.004-53.999,77.002-56.001-45.996-58.003
		c-128.008-1.997-240-21.997-343.003-61.997c-196.997-76.001-371.997-257.002-446.997-461.001c-39.004-105-41.001-132.002-4.004-60
		c109.004,216.001,266.001,336.001,475,365l43.003,5l-80-77.998c-128.999-128.003-217.002-284.004-262.002-467.002
		c-20-77.002-38.999-355-26.001-355c4.004,0,15,17.002,26.001,37.998c42.002,80,128.003,132.002,221.001,131.001
		c96.001-1.001,100-6.997,41.001-71.001c-55-60.996-118.003-103.999-193.003-133.999c-26.997-11.001-47.998-21.997-47.998-25
		c0-13.999,147.002-62.998,207.998-68.999l67.002-6.001l-48.999-22.998c-27.002-13.003-75-26.001-107.002-28.003
		c-31.997-2.998-56.001-10-52.998-13.999c7.998-13.999,165-10,206.997,5l38.003,13.999l-5-25.996
		c-33.003-163.003-42.002-554.004-17.002-742.002c8.003-57.998,13.003-107.002,13.003-108.999c-1.001-3.003-25-6.001-54.004-8.003
		c-106.997-5.996-185.996-72.998-207.998-175.996c-12.002-60-3.999-112.002,33.999-228.008c13.999-41.992,32.002-115.996,41.001-165
		c48.999-260.996,146.001-430.996,282.002-492.998c60.996-27.998,59.004-21.992,92.998-270.996c12.002-85,27.998-182.002,36.006-215
		c23.994-94.004,85.996-212.002,165-310c83.994-105.996,491.992-512.998,580-579.004c265.996-200,631.992-200,897.998,0
		c87.998,66.006,495.996,473.008,580,579.004c78.994,97.998,140.996,215.996,165,310c7.998,32.998,23.994,130,35.996,215
		c35,252.002,30,239.004,105.996,279.004c132.002,67.998,215,215,265,468.994c12.002,59.004,32.002,140.996,46.006,182.002
		c37.002,115,45,167.002,32.998,227.002c-22.002,105.996-105,172.998-215,175.996c-45,1.001-54.004,4.004-50,17.002
		c9.004,32.002,35,243.999,40.996,341.001l7.002,100l61.006,41.997c32.998,23.003,63.994,45,67.998,48.003
		c5,2.998,12.998,46.001,20,95c5.996,48.999,12.002,90,12.998,91.997c2.002,2.002,22.002-5.996,45-17.998s45-18.999,47.998-16.001
		c10,10-17.998,138.003-47.002,212.002c-33.994,87.998-102.998,192.998-170,257.998l-50,48.999l33.008,46.001
		c55.996,76.001,77.998,158.003,77.998,287.002c0,123.999-15,181.001-25,96.001c-11.006-90-67.002-171.001-121.006-175
		c-25-2.002-30,3.999-46.992,50c-38.008,98.999-136.006,216.997-246.006,293.999c-20.996,15-20.996,16.997-5.996,60
		c20,57.998,12.998,187.998-14.004,248.999l-18.994,45l3.994-95c2.002-62.002-2.002-111.001-10.996-140l-12.998-45l-19.004,73.999
		c-10,41.001-35.996,111.001-57.998,155c-70,141.001-245,293.003-369.003,322.002c-25.996,6.001-25.996,5-17.002-33.003
		c17.002-72.998,13.008-75.996-37.998-35.996c-125,95.996-348.994,157.998-635,177.998
		C1817.549,6415.209,1773.545,6415.209,1773.545,6411.21z M1603.545,4785.209c150-30,181.006-33.999,340-33.999
		c159.004,0,190.996,3.999,340,33.999c185,37.002,385.996,51.001,455.996,32.002c59.004-16.001,106.006-51.001,132.002-98.003
		c12.002-22.998,36.006-101.997,51.006-175c36.992-168.999,60.996-231.997,118.994-310c64.004-86.997,72.998-132.998,79.004-420.996
		c5-228.008,5.996-237.002,25-230.996c17.998,5,18.994,0.996,13.994-83.008c-2.998-47.998-7.998-132.998-10.996-187.998
		c-7.002-119.004-35.996-327.998-70-492.998c-12.998-66.006-32.998-189.004-45-272.998c-24.004-175-40-239.004-80-320
		c-57.998-113.008-235-310-509.003-566.006c-120-112.002-170-150.996-225-177.998c-183.994-90-367.998-90-552.002,0
		c-55.996,27.998-105,67.002-235,187.998c-275.996,259.004-440.996,442.998-498.994,556.006c-40,80.996-56.006,145-80,320
		c-12.002,83.994-32.002,206.992-45,272.998c-32.998,157.998-62.998,370.996-68.994,482.998
		c-18.008,307.998-18.008,287.002,1.992,280c19.004-5,20,3.994,25,232.002c5.996,287.998,15,333.999,79.004,420.996
		c57.998,78.003,81.992,141.001,119.004,310c38.994,184.004,68.994,232.002,165,268.003
		C1195.547,4837.211,1406.543,4825.209,1603.545,4785.209z M556.543,3716.21c6.001-16.006,15-30,19.004-30
		c3.999,0,7.998-6.006,7.998-13.994c0-10-12.002-12.012-48.999-8.008c-57.002,5-85-7.998-107.002-50
		c-26.997-50.996-1.001-127.998,36.001-107.998c13.999,7.998,17.002,17.998,12.998,48.994c-5,36.006-2.998,42.012,19.004,52.012
		c20,8.994,31.997,7.988,56.997-5c28.003-15,31.001-21.006,31.001-67.012c0-35-6.001-57.988-21.001-77.988
		c-52.998-72.012-36.997-229.004,31.001-306.006c17.998-20.996,56.006-222.002,43.994-234.004c-10-10-73.994,70-103.994,129.004
		c-36.001,72.002-66.001,167.998-81.001,255c-6.001,38.994-26.997,118.994-45,177.998c-60,193.008-36.001,265.996,88.999,267.002
		C541.543,3746.21,546.543,3744.208,556.543,3716.21z M3462.548,3732.216c60-32.012,65-99.004,16.992-253.008
		c-17.998-59.004-38.994-139.004-45-177.998c-15.996-92.998-45.996-185.996-87.998-265.996
		c-32.998-64.004-87.002-128.008-97.998-117.002c-12.002,10.996,27.002,212.998,45,232.998c42.998,47.998,55,87.998,55,182.002
		c0,79.004-2.998,95-22.002,121.992c-17.002,22.012-22.998,44.004-22.998,80c0,46.006,2.998,52.012,30,66.006
		c37.002,18.994,45,18.994,65-2.002c12.002-10.996,15-25,10.996-47.998c-5-22.002-1.992-36.006,9.004-45
		c35-28.994,65,46.006,40.996,103.994c-16.992,40-60.996,61.006-115.996,53.008c-30-4.004-40-2.002-40,9.004
		c0,7.988,5,13.994,10,13.994c5.996,0,10,6.006,10,13.994C3323.544,3743.212,3405.546,3761.21,3462.548,3732.216z"/>
	<path fill="#012069" d="M1182.539,3932.211c-53.994-13.999-131.992-62.002-173.994-104.995c-35-38.008-25-52.012,17.998-26.006
		c159.004,95,180.996,96.001,423.008,15c97.988-32.998,190-60,203.994-60c32.002,0,50,17.002,50,45c0,47.998-46.006,65-302.002,115
		c-86.992,16.001-160.996,30-165,28.999C1231.543,3945.209,1207.539,3939.208,1182.539,3932.211z"/>
	<path fill="#012069" d="M2459.541,3911.21c-190-38.999-232.998-51.001-257.998-72.998c-20.996-17.002-22.998-53.008-5.996-70
		c20.996-20.996,60.996-13.008,242.002,47.998c240.996,81.001,263.994,81.001,422.998-15c52.002-32.002,52.002-7.002,0,40
		c-55,51.001-134.004,91.001-192.002,98.999C2643.544,3943.212,2566.543,3932.211,2459.541,3911.21z"/>
	<path fill="#012069" d="M1177.539,3664.209c-125.996-14.004-178.994-29.004-178.994-52.998c0-22.002,92.002-97.002,115-92.002
		c23.994,4.004,23.994,39.004-1.006,57.002l-21.992,17.998l40.996,5.996c23.008,3.008,60,9.004,82.002,12.012l40,5.996v-45
		c0-34.004,6.006-50,26.006-70c65-65.996,172.988-28.008,173.994,60.996c0,30,2.002,33.008,22.998,25.996
		c30-8.994,94.004-50,134.004-85c19.004-15.996,39.004-25.996,47.998-22.988c66.006,25.996-97.998,153.994-232.998,182.988
		C1365.547,3678.213,1294.551,3677.217,1177.539,3664.209z"/>
	<path fill="#012069" d="M2448.545,3662.217c-132.998-33.008-282.998-155-220-180c9.004-3.008,29.004,6.992,47.998,22.988
		c40,35,104.004,76.006,135,85c20,7.012,22.002,4.004,22.002-25.996c0.996-89.004,109.004-126.992,174.004-60.996
		c20,20,25.996,35.996,25.996,70v45l40-5.996c22.002-3.008,59.004-9.004,82.002-12.012l40.996-5.996l-22.002-17.998
		c-25-17.998-25-52.998-0.996-57.002c22.998-5,115,70,115,92.002c0,25-49.004,37.998-194.004,53.994
		C2568.545,3679.209,2512.549,3678.213,2448.545,3662.217z"/>
	<path fill="#012069" d="M1780.547,3660.205c-4.004-3.994-7.002-172.988-7.002-375c0-296.992,2.998-367.998,12.998-371.992
		c36.006-14.004,37.002,2.002,35,379.004c-2.998,323.994-5,368.994-17.998,371.992
		C1794.551,3665.205,1784.551,3664.209,1780.547,3660.205z"/>
	<path fill="#012069" d="M1633.545,3062.207c-16.006-43.994-23.994-245.996-11.006-306.992c14.004-67.002,30-83.008,96.006-100
		c31.006-8.008,66.006-26.006,92.998-49.004c82.002-72.998,182.002-72.998,264.004,0c27.998,24.004,60.996,40.996,95,49.004
		c62.002,15,85,37.998,87.002,87.998c0.996,52.998-29.004,57.998-49.004,8.994c-12.002-28.994-22.002-35.996-52.002-41.992
		c-47.998-8.008-82.998-26.006-107.998-54.004c-60-65.996-150-65.996-210,0c-25,27.998-60,45.996-107.998,54.004
		c-29.004,5-40,13.994-48.008,33.994c-15.996,39.004-6.992,281.006,10,291.006c22.012,13.994,8.008,45.996-21.992,48.994
		C1649.551,3087.207,1641.543,3082.207,1633.545,3062.207z"/>
	<path fill="#012069" d="M1316.543,2400.215c-10-26.006,14.004-62.002,54.004-82.002c40.996-21.006,171.992-52.998,297.998-72.998
		c46.006-8.008,165-13.008,280-13.008c164.004,0,222.998,4.004,329.004,23.008c240,41.992,303.994,73.994,296.992,148.994
		c-1.992,20-38.994,14.004-50.996-8.994c-20-37.002-115.996-65-317.998-93.008c-292.002-40.996-760,7.002-833.008,85
		C1342.539,2420.215,1325.547,2423.213,1316.543,2400.215z"/>
	<path fill="#012069" d="M1723.545,2098.213c0-12.002,7.998-25,17.998-30c37.002-20,169.004-35,257.002-29.004
		c117.998,7.998,169.004,24.004,172.998,56.006c4.004,22.998,2.998,22.998-55,15c-73.994-11.006-260.996-12.002-335,0
		C1726.543,2118.213,1723.545,2117.207,1723.545,2098.213z"/>
	<path fill="#012069" d="M-1016.455,504.209c-157.002-45-188.999-252.002-52.002-338.994l46.001-29.004h756.001h757.002
		l43.999,22.998c61.997,32.998,102.993,111.006,95.005,181.006c-7.012,62.998-45,118.994-99.004,147.998l-42.002,22.998l-735,2.002
		C-715.454,514.209-994.453,511.211-1016.455,504.209z M513.545,447.207c47.002-25,72.998-71.992,72.002-128.994
		c0-51.006-21.001-85-72.002-119.004l-32.998-22.998h-739.004c-670.996,0-742.998,2.002-775,17.002
		c-38.999,17.998-70,60.996-78.999,108.994c-7.998,45,26.001,118.008,68.003,144.004c31.997,20,47.998,20,777.998,20
		C441.543,466.211,480.547,465.215,513.545,447.207z"/>
	<path fill="#012069" d="M-398.457,414.209c-1.997-18.994-10-23.994-45-25.996c-65.996-5-95-66.006-56.997-120
		c12.998-19.004,23.999-22.002,75-21.006l58.999,2.002v92.998c0,75-2.998,94.004-13.999,94.004
		C-388.457,436.211-396.455,426.211-398.457,414.209z"/>
	<path fill="#012069" d="M-670.454,364.209c-20-28.994-20-67.002,0-95.996c12.998-19.004,23.999-22.998,60-21.006
		c23.999,2.002,46.001,0,50-3.994c16.001-16.006,23.999,8.994,23.999,73.994v69.004h-58.999
		C-646.455,386.211-657.456,383.213-670.454,364.209z"/>
	<path fill="#012069" d="M-24.453,370.215c-16.001-11.006-22.002-25-22.002-53.008c0-52.998,22.998-71.992,87.998-68.994
		l52.002,2.002v67.998v67.998H45.547C18.545,386.211-11.455,379.209-24.453,370.215z"/>
</g>
</svg>
